#N canvas -1834 149 463 600 12;
#X obj 63 80 comport 2 9600;
#X obj 61 130 float;
#X obj 62 167 expr ($f1/1023);
#X obj 60 207 t f f;
#X obj 187 261 expr 200 + ($f1*2000);
#X obj 17 369 expr 100 + ($f1*600);
#X obj 50 435 osc~;
#X obj 49 471 *~ 0.2;
#X obj 180 517 lop~;
#X obj 180 548 dac~;
#X msg 243 102 \; pd dsp 1;
#X msg 244 158 \; pd dsp 0;
#X connect 0 0 1 0;
#X connect 1 0 2 0;
#X connect 2 0 3 0;
#X connect 3 0 5 0;
#X connect 3 1 4 0;
#X connect 4 0 5 0;
#X connect 4 0 8 1;
#X connect 5 0 6 0;
#X connect 6 0 7 0;
#X connect 7 0 8 0;
#X connect 8 0 9 0;
