#N canvas -1464 49 511 747 12;
#X obj 116 128 print;
#X obj 66 204 float;
#X obj 57 307 expr ($f1/1023)*800 + 200;
#X obj 66 364 osc~;
#X obj 66 400 *~ 0.2;
#X obj 67 434 dac~;
#N canvas 0 22 450 278 (subpatch) 0;
#X coords 0 1 100 -1 200 140 1;
#X restore 230 416 graph;
#X msg 225 128 \; pd dsp 1;
#X msg 226 184 \; pd dsp 0;
#X floatatom 55 278 5 0 0 0 - - - 0;
#X msg 165 20 open 2;
#X msg 69 21 devices;
#X obj 63 80 comport 2 9600;
#X connect 1 0 9 0;
#X connect 2 0 3 0;
#X connect 3 0 4 0;
#X connect 4 0 5 0;
#X connect 9 0 2 0;
#X connect 12 0 0 0;
#X connect 12 0 1 0;
