#N canvas -1744 52 752 682 12;
#X msg 192 59 devices;
#X msg 194 111 close;
#X text 254 59 view available ports;
#X text 254 88 start recieving data from arduino;
#X text 249 111 stop the communication. do this whenever you update a code to arduino;
#X floatatom 121 502 5 0 0 0 - - - 0;
#X floatatom 163 504 5 0 0 0 - - - 0;
#X floatatom 204 505 5 0 0 0 - - - 0;
#X floatatom 246 506 5 0 0 0 - - - 0;
#X floatatom 288 507 5 0 0 0 - - - 0;
#X floatatom 330 510 5 0 0 0 - - - 0;
#X msg 194 85 open 4;
#X text 252 33 start recieving data from arduino;
#X obj 122 255 sel 13 10;
#X obj 121 322 zl group 100;
#X obj 121 460 unpack f f f f f f;
#X obj 126 598 osc~;
#X obj 126 635 dac~;
#X floatatom 168 592 5 0 0 0 - - - 0;
#X obj 216 602 osc~;
#X floatatom 258 596 5 0 0 0 - - - 0;
#X obj 305 602 osc~;
#X floatatom 347 596 5 0 0 0 - - - 0;
#X text 199 252 look for new line characters;
#X text 220 317 group together all the messages. 100 is just an arbitrarily large number;
#X text 228 371 convert integers into symbols;
#X text 234 414 convert symbols into numbers/messages;
#X obj 121 375 list tosymbol;
#X obj 121 412 list fromsymbol;
#X msg 192 30 open 2;
#X obj 120 163 comport 2 9600;
#X obj 216 569 * 0.9;
#X obj 305 569 * 0.6;
#X obj 126 565 * 0.4;
#X connect 0 0 30 0;
#X connect 1 0 30 0;
#X connect 5 0 33 0;
#X connect 6 0 31 0;
#X connect 7 0 32 0;
#X connect 11 0 30 0;
#X connect 13 0 14 0;
#X connect 13 2 14 0;
#X connect 14 0 27 0;
#X connect 15 0 5 0;
#X connect 15 1 6 0;
#X connect 15 2 7 0;
#X connect 15 3 8 0;
#X connect 15 4 9 0;
#X connect 15 5 10 0;
#X connect 16 0 17 0;
#X connect 16 0 17 1;
#X connect 19 0 17 0;
#X connect 19 0 17 1;
#X connect 21 0 17 0;
#X connect 21 0 17 1;
#X connect 27 0 28 0;
#X connect 28 0 15 0;
#X connect 29 0 30 0;
#X connect 30 0 13 0;
#X connect 31 0 19 0;
#X connect 31 0 20 0;
#X connect 32 0 21 0;
#X connect 32 0 22 0;
#X connect 33 0 16 0;
#X connect 33 0 18 0;
