#N canvas -1622 199 511 747 12;
#X obj 116 128 print;
#X obj 66 204 float;
#X obj 57 307 expr ($f1/1023)*800 + 200;
#X obj 66 364 osc~;
#X obj 66 400 *~ 0.2;
#X obj 67 434 dac~;
#X msg 225 128 \; pd dsp 1;
#X msg 226 184 \; pd dsp 0;
#X floatatom 55 278 5 0 0 0 - - - 0;
#X msg 69 21 devices;
#X obj 63 80 comport 2 9600;
#X text 141 19 view availabe ports;
#X text 173 76 open usb port (receiveing datas and sendind into the patch;
#X text 295 131 start receiving data from arduino;
#X text 297 189 stop the communication.;
#X text 251 309 Datas transformation;
#X text 186 277 /!/ sensor offers float between 0 & 1023;
#X text 212 327 result: 200Hz until 1000Hz;
#X text 102 363 Audio generator;
#X text 115 398 Volume adjusting;
#X text 109 434 audio sending to speakers;
#X text 109 452 Digital to Analog converter;
#X connect 1 0 8 0;
#X connect 2 0 3 0;
#X connect 3 0 4 0;
#X connect 4 0 5 0;
#X connect 8 0 2 0;
#X connect 9 0 10 0;
#X connect 10 0 0 0;
#X connect 10 0 1 0;
